<?xml version="1.0" standalone="no"?>
<!DOCTYPE svg PUBLIC "-//W3C//DTD SVG 20010904//EN"
 "http://www.w3.org/TR/2001/REC-SVG-20010904/DTD/svg10.dtd">
<svg version="1.0" xmlns="http://www.w3.org/2000/svg"
 width="860.000000pt" height="860.000000pt" viewBox="0 0 860.000000 860.000000"
 preserveAspectRatio="xMidYMid meet">
<metadata>
Created by potrace 1.11, written by Peter Selinger 2001-2013
</metadata>
<g transform="translate(0.000000,860.000000) scale(0.100000,-0.100000)"
fill="#000000" stroke="none">
<path d="M4049 8546 c-2 -2 -47 -7 -99 -11 -52 -3 -108 -8 -125 -10 -16 -2
-55 -6 -85 -10 -30 -3 -64 -7 -76 -10 -12 -2 -39 -7 -60 -10 -21 -4 -50 -8
-64 -11 -14 -2 -41 -7 -60 -10 -19 -3 -64 -12 -100 -20 -121 -28 -168 -37
-173 -33 -2 2 -10 -1 -18 -7 -8 -6 -36 -17 -64 -24 -133 -34 -410 -129 -545
-188 -203 -88 -561 -274 -580 -302 -3 -4 -15 -10 -27 -14 -13 -4 -23 -12 -23
-17 0 -5 -5 -9 -10 -9 -17 0 -206 -132 -365 -255 -10 -8 -23 -15 -29 -15 -5 0
-7 -3 -3 -6 3 -3 -15 -22 -40 -41 -25 -19 -61 -49 -80 -66 -19 -18 -49 -45
-66 -60 -106 -96 -258 -252 -342 -350 -28 -32 -61 -72 -75 -88 -27 -31 -34
-39 -113 -144 -82 -107 -243 -351 -245 -369 0 -5 -4 -12 -9 -15 -9 -6 -79
-128 -118 -206 -11 -22 -24 -43 -30 -47 -5 -4 -6 -8 -2 -8 5 0 0 -15 -11 -34
-52 -88 -220 -508 -228 -571 0 -5 -6 -21 -11 -35 -12 -28 -26 -88 -22 -92 1
-2 -3 -12 -9 -24 -6 -11 -13 -32 -16 -45 -10 -48 -15 -71 -20 -87 -3 -9 -8
-35 -12 -57 -3 -22 -8 -43 -10 -46 -2 -3 -6 -21 -9 -40 -3 -19 -10 -56 -15
-84 -5 -27 -12 -70 -15 -95 -3 -25 -7 -52 -10 -60 -2 -8 -7 -49 -11 -90 -3
-41 -9 -88 -11 -105 -10 -61 -11 -4262 -1 -4315 28 -153 162 -298 322 -348 11
-4 1793 -8 3958 -9 l3938 -3 63 24 c129 48 203 113 261 225 48 93 46 -17 43
2246 -2 1166 -7 2145 -11 2175 -4 30 -9 73 -11 95 -2 22 -4 40 -5 40 -1 0 -3
18 -5 40 -1 22 -5 54 -8 70 -3 17 -9 50 -12 75 -3 25 -10 62 -16 82 -5 20 -9
40 -8 45 1 4 -1 22 -5 38 -5 17 -21 84 -37 150 -32 127 -33 133 -76 265 -15
47 -28 90 -29 95 -3 19 -76 200 -122 305 -76 172 -151 314 -260 492 -34 57
-68 112 -75 123 -7 11 -14 22 -17 25 -3 3 -21 28 -40 55 -19 28 -38 52 -42 53
-4 2 -8 8 -8 13 0 5 -6 17 -14 26 -207 260 -214 268 -380 443 -81 85 -226 218
-326 300 -30 25 -57 47 -60 50 -3 3 -26 21 -53 40 -26 19 -60 45 -75 58 -15
13 -39 30 -54 38 -16 8 -28 19 -28 24 0 6 -5 10 -11 10 -12 0 -102 61 -107 73
-2 4 -7 7 -12 7 -8 0 -109 59 -120 70 -5 5 -16 12 -89 52 -20 11 -40 24 -46
28 -27 21 -378 190 -425 205 -14 4 -29 11 -35 15 -8 6 -143 56 -325 120 -31
11 -167 50 -189 55 -9 2 -29 8 -46 15 -16 6 -31 11 -33 10 -1 -1 -15 1 -30 4
-15 4 -37 8 -50 11 -13 2 -31 6 -40 9 -31 9 -157 34 -212 42 -19 2 -62 9 -95
15 -33 6 -76 13 -95 14 -19 2 -60 6 -90 10 -30 3 -75 8 -100 11 -54 6 -616 15
-621 10z m556 -325 c0 -1 20 -4 45 -6 143 -11 296 -32 435 -60 39 -8 81 -16
95 -19 14 -2 54 -12 90 -21 36 -9 74 -19 84 -21 21 -4 82 -22 106 -31 8 -3 26
-8 40 -10 13 -2 30 -9 37 -15 7 -6 13 -8 13 -5 0 6 177 -55 208 -72 11 -6 22
-7 26 -4 3 3 6 2 6 -4 0 -5 6 -10 13 -10 6 0 28 -7 47 -16 19 -9 82 -37 140
-63 94 -41 175 -82 322 -163 170 -93 561 -366 576 -403 2 -4 7 -8 11 -8 23 0
368 -340 477 -470 138 -165 298 -388 360 -500 10 -19 21 -37 24 -40 23 -23
178 -334 230 -460 23 -58 48 -118 55 -135 12 -28 38 -104 40 -115 0 -3 10 -34
22 -70 22 -69 44 -144 57 -197 3 -10 5 -19 6 -20 3 -3 4 -7 13 -53 4 -19 9
-46 12 -60 16 -73 26 -128 30 -155 3 -16 7 -41 10 -55 7 -36 24 -169 31 -253
l6 -73 -810 1 c-805 0 -811 0 -834 21 -13 11 -56 57 -97 102 -40 45 -85 94
-100 110 -14 15 -64 70 -111 121 -47 51 -107 116 -135 145 -27 29 -86 93 -130
141 -44 49 -91 100 -105 115 -14 15 -65 71 -115 125 -49 54 -110 120 -135 146
-25 25 -65 69 -89 95 -73 81 -234 256 -272 297 -20 20 -68 72 -107 115 -76 84
-81 90 -222 242 -52 57 -103 112 -113 124 -18 20 -179 195 -242 262 -16 17
-68 73 -115 124 -131 143 -133 145 -163 164 -36 24 -115 24 -153 0 -16 -10
-42 -33 -59 -50 -30 -32 -180 -194 -224 -243 -13 -14 -68 -73 -121 -131 -53
-58 -108 -117 -121 -131 -44 -48 -193 -211 -228 -248 -18 -20 -67 -73 -109
-119 -42 -46 -90 -98 -107 -116 -16 -17 -70 -76 -120 -130 -49 -54 -106 -116
-125 -136 -19 -21 -69 -74 -110 -119 -41 -45 -93 -101 -115 -125 -35 -38 -165
-178 -235 -256 -112 -122 -192 -209 -230 -249 -25 -26 -83 -89 -130 -141 -47
-51 -102 -112 -123 -134 -22 -23 -55 -59 -75 -81 l-36 -40 -814 -1 -813 0 5
75 c4 42 8 87 10 101 3 14 7 50 11 80 3 30 10 72 14 93 5 20 7 37 4 37 -3 0 0
6 6 13 6 8 8 16 6 19 -12 11 58 296 117 478 60 186 208 539 230 548 5 2 8 12
8 22 0 10 3 20 8 22 7 3 52 84 81 146 8 17 19 32 23 32 4 0 8 7 8 15 0 8 4 15
9 15 5 0 11 8 14 18 6 17 37 72 47 82 3 3 23 32 45 64 48 70 176 243 201 270
9 11 44 51 77 90 68 80 306 319 382 384 28 23 59 50 70 61 42 39 237 183 331
246 54 35 104 68 110 72 5 5 21 14 35 22 120 70 191 109 226 126 24 11 43 23
43 28 0 4 6 7 14 7 17 0 80 32 84 43 2 4 9 7 17 7 7 0 46 15 86 34 144 65 427
169 498 182 14 3 28 7 33 10 4 3 16 7 25 9 10 2 54 12 98 24 44 11 96 23 115
26 19 3 51 10 70 15 37 10 70 16 135 25 22 3 51 8 65 10 23 5 82 12 155 21 17
1 71 6 120 10 50 4 92 8 94 10 3 3 546 -2 546 -5z m-295 -1518 c0 -5 28 -38
63 -74 34 -36 105 -113 157 -169 52 -57 109 -118 125 -136 121 -130 191 -208
198 -220 5 -8 0 -17 -12 -23 -11 -6 -25 -17 -33 -23 -7 -7 -30 -24 -50 -38
-21 -14 -38 -28 -38 -32 0 -5 -6 -8 -13 -8 -7 0 -22 -8 -33 -18 -10 -10 -41
-33 -69 -52 -27 -19 -59 -43 -70 -53 -11 -10 -41 -32 -67 -49 -27 -16 -48 -34
-48 -39 0 -5 -6 -9 -14 -9 -8 0 -16 -3 -18 -7 -1 -5 -24 -22 -49 -40 l-45 -32
-293 194 -292 193 53 57 c29 32 68 74 87 94 18 20 68 74 110 120 42 46 92 101
111 121 82 87 215 234 218 241 4 11 22 12 22 2z m-3100 -2947 c126 -10 154
-46 248 -319 40 -117 74 -219 77 -227 2 -8 13 -42 25 -75 11 -33 23 -67 25
-75 2 -8 4 -16 5 -17 2 -2 3 -6 4 -10 1 -5 19 -60 41 -123 22 -63 40 -117 40
-120 1 -3 4 -12 8 -20 3 -8 32 -93 63 -188 32 -95 61 -169 64 -165 4 5 23 58
43 118 20 61 75 225 122 365 92 273 92 271 94 282 1 7 15 46 37 103 4 11 8 22
9 25 0 3 12 37 25 75 13 39 25 72 25 75 1 3 13 43 29 90 34 104 63 149 119
181 41 24 46 24 310 26 308 1 335 -3 391 -68 25 -30 48 -84 100 -237 37 -108
69 -204 71 -212 2 -8 4 -16 5 -17 2 -2 3 -6 4 -10 1 -5 13 -39 26 -78 13 -38
25 -74 26 -80 15 -59 221 -645 227 -645 5 0 7 6 4 14 -3 7 0 19 6 25 6 6 7 11
1 11 -5 0 -3 4 3 8 7 4 14 18 16 30 2 12 6 25 10 28 4 4 7 17 7 29 0 12 3 24
6 28 4 3 17 39 31 79 13 40 26 80 30 88 3 8 7 20 8 25 3 10 102 308 112 335 3
8 43 127 89 263 94 278 95 280 137 324 53 56 90 62 387 60 289 -2 298 -4 355
-65 57 -60 72 -135 44 -219 -10 -29 -15 -53 -12 -53 3 0 1 -6 -4 -12 -6 -7
-13 -22 -16 -33 -6 -24 -155 -464 -164 -485 -3 -8 -7 -19 -8 -25 -2 -5 -24
-71 -50 -145 -25 -74 -48 -142 -50 -150 -2 -8 -35 -106 -73 -217 -39 -112 -68
-203 -65 -203 3 0 1 -6 -4 -12 -6 -7 -18 -38 -27 -68 -9 -30 -20 -62 -23 -70
-13 -34 -265 -776 -268 -790 -2 -8 -17 -52 -34 -98 -17 -45 -28 -82 -26 -82 6
0 -24 -49 -51 -83 -12 -15 -27 -27 -33 -27 -6 0 -11 -4 -11 -8 0 -24 -89 -32
-338 -32 -382 0 -364 -13 -486 355 -26 77 -50 147 -53 155 -3 8 -7 17 -8 20
-1 3 -4 12 -7 20 -3 8 -17 51 -31 95 -21 66 -72 219 -95 285 -2 8 -20 58 -39
110 -18 52 -35 102 -37 110 -2 8 -16 49 -31 90 -14 41 -27 81 -27 88 -3 32
-18 0 -63 -135 -27 -82 -54 -154 -59 -162 -6 -8 -10 -16 -8 -18 5 -5 -99 -316
-111 -330 -5 -7 -7 -13 -4 -13 3 0 -3 -26 -14 -57 -11 -32 -22 -62 -23 -68 -2
-5 -5 -17 -8 -25 -3 -8 -18 -51 -33 -95 -15 -44 -29 -87 -33 -95 -3 -8 -6 -17
-7 -20 0 -3 -16 -50 -34 -105 -27 -80 -42 -108 -75 -141 -23 -23 -57 -46 -77
-52 -20 -5 -157 -9 -306 -9 -257 0 -271 1 -308 21 -73 41 -85 67 -229 496 -75
223 -161 479 -192 570 -31 91 -57 170 -59 175 -1 6 -5 17 -8 25 -27 66 -227
672 -225 680 1 3 -5 16 -12 30 -8 14 -15 30 -16 35 -1 6 -32 98 -69 205 -36
107 -68 200 -69 205 -5 24 -38 122 -47 140 -15 30 -18 114 -6 149 15 47 62
101 104 122 32 16 70 20 253 24 118 3 222 4 230 3 8 -1 40 -4 70 -7z m5077
-25 c53 -30 80 -67 104 -144 11 -34 24 -71 28 -82 9 -23 50 -142 56 -165 2 -8
33 -100 70 -205 36 -104 67 -197 68 -205 2 -8 6 -22 9 -30 4 -8 16 -44 28 -80
12 -36 25 -74 29 -85 5 -11 23 -65 40 -120 18 -55 36 -109 41 -120 13 -31 24
-69 22 -77 -1 -5 2 -8 6 -8 7 0 125 339 124 357 0 4 3 13 7 18 4 6 43 116 85
245 43 129 81 244 86 255 5 11 35 97 66 192 94 281 94 281 473 281 160 -1 271
-5 279 -11 6 -5 12 -6 12 -3 0 10 60 -33 83 -59 66 -73 67 -133 5 -316 -27
-79 -51 -148 -52 -154 -2 -5 -5 -17 -8 -25 -21 -55 -60 -166 -60 -170 -1 -7
-7 -27 -15 -47 -3 -10 -7 -22 -9 -28 -1 -5 -36 -109 -77 -230 -41 -121 -111
-330 -156 -465 -45 -135 -86 -254 -91 -265 -9 -21 -89 -258 -96 -285 -28 -107
-241 -704 -260 -732 -15 -21 -43 -47 -63 -60 -35 -21 -45 -22 -318 -24 -247
-1 -286 1 -320 16 -63 28 -97 77 -138 199 -20 61 -35 112 -33 114 2 2 -2 10
-9 18 -6 8 -14 26 -17 39 -5 23 -88 274 -103 310 -4 8 -7 17 -8 20 0 3 -18 57
-40 120 -21 63 -40 120 -41 125 -1 6 -18 53 -36 105 -19 52 -35 97 -36 100 -2
9 -14 44 -28 83 -8 20 -11 37 -7 37 4 0 2 5 -5 12 -7 7 -12 21 -12 33 -1 16
-2 17 -9 5 -8 -13 -79 -218 -86 -245 -1 -5 -5 -18 -8 -27 -14 -36 -218 -639
-221 -653 -2 -5 -6 -17 -9 -25 -4 -8 -25 -71 -48 -140 -48 -145 -73 -187 -132
-221 -41 -24 -46 -24 -317 -26 -250 -1 -279 0 -315 17 -51 24 -78 48 -98 86
-14 27 -65 164 -71 189 -2 12 -45 143 -53 165 -3 8 -33 96 -67 195 l-62 180
27 73 c15 39 25 72 22 72 -2 0 -1 5 3 11 6 10 209 602 219 639 2 8 31 96 65
195 34 99 63 185 64 190 7 31 42 115 47 115 3 0 13 -24 22 -52 15 -52 42 -133
58 -173 4 -11 13 -38 20 -60 6 -22 15 -49 19 -60 10 -26 21 -59 22 -65 0 -4 9
-31 34 -95 4 -11 8 -24 10 -30 9 -36 27 -68 31 -55 3 8 7 22 10 30 3 8 7 20 9
25 1 6 33 98 69 205 37 107 68 201 68 208 0 6 5 12 10 12 6 0 8 3 4 6 -3 4 2
28 12 55 10 26 16 50 13 53 -3 4 -1 6 5 6 5 0 10 6 10 13 0 6 44 139 96 295
53 155 94 282 91 282 -8 0 48 84 65 98 17 13 65 37 91 45 8 2 137 4 285 3 265
-1 271 -1 312 -25z"/>
</g>
</svg>
